<svg xmlns="http://www.w3.org/2000/svg" xmlns:xlink="http://www.w3.org/1999/xlink" height="1327.5" preserveAspectRatio="xMidYMid meet" version="1.0" viewBox="0.0 0.0 1330.9 1327.5" width="1330.9" zoomAndPan="magnify">
  <g id="change1_1">
    <path d="M875.6859131,119.6004639c-1.1143188-2.9401855-0.571167-6.2791748,1.4173584-8.7144775 l44.2830811-54.2207031c1.6835327-2.0615234,4.1782837-3.2436523,6.8449707-3.2436523 c0.4718628,0,0.946228,0.0383301,1.4116821,0.1140137l69.0975952,11.2397461 c3.1029053,0.5053711,5.7224731,2.6447754,6.8380127,5.5837402l24.8151855,65.4616699 c1.1143799,2.9387207,0.5717773,6.277832-1.4161377,8.713623l-44.2849121,54.2216797 C983.0098267,200.817627,980.5150757,202,977.848999,202c-0.47052,0-0.9448853-0.038208-1.4103394-0.1136475l-69.0995483-11.2404785 c-3.1022339-0.5046387-5.7224121-2.644165-6.8380127-5.583374L875.6859131,119.6004639z M384.1599731,73.4599609L210.1599731,0 L87.789978,100.1899414L0,213.3699951L86.2000122,400l173.9899902,73.4500122l122.3699951-100.1900024l87.7999878-113.1699219 L384.1599731,73.4599609z M158.918335,807.6990356l77.2012939-67.656189 c3.4651489-3.0394897,5.0609131-7.7351074,4.1639404-12.2566528l-19.9912109-100.6838989 c-0.1345825-0.6782837-0.3253784-1.3495483-0.5673218-1.9976807c-1.3674316-3.663269-4.2705688-6.4841919-7.9656982-7.7398682 l-97.19104-33.0292358c-4.3649902-1.4830322-9.2304688-0.5169067-12.697998,2.5214233l-77.2017212,67.6563721 c-3.4656372,3.0396729-5.0610352,7.736145-4.1635132,12.2564697l19.991333,100.6868896 c0.1350098,0.6781006,0.3257446,1.3493042,0.5670776,1.9957275c1.3670654,3.6624146,4.2706299,6.4831543,7.9654541,7.7379761 l97.1933594,33.0313721C150.5878296,811.7035522,155.4529419,810.7365723,158.918335,807.6990356z M1329.5189209,286.5500488 l-30.2299805,103.0199585c-1.3601074,4.6300049-5.1101074,8.2099609-9.8000488,9.3499756L1185.1489258,424.25 c-1.0400391,0.25-2.1099854,0.3800049-3.1800537,0.3800049c-2.9399414,0-5.8499756-0.9800415-8.1899414-2.75 c-0.5800781-0.4400024-1.1300049-0.9299927-1.6300049-1.4500122l-74.0999756-77.6900024 c-3.3200684-3.4899902-4.5500488-8.5300293-3.1900635-13.1600342l30.2301025-103.0198975 c1.3598633-4.630127,5.1098633-8.210083,9.7999268-9.3500977l104.3399658-25.3299561 c1.0400391-0.25,2.1101074-0.3800049,3.1800537-0.3800049c3.6900635,0,7.2698975,1.5300293,9.8099365,4.1999512 l74.1000977,77.6900635C1329.6489258,276.8800049,1330.8789062,281.9199219,1329.5189209,286.5500488z M1307.2188721,284.9899902 l-67.5-70.7600098l-95.0300293,23.0700684l-27.5299072,93.8299561l67.4899902,70.7699585l95.0299072-23.0700073 L1307.2188721,284.9899902z M1154.098999,721.1900024l-256.1200562,313.5900269 c-6.1599731,7.5400391-15.3999634,11.8299561-24.9799805,11.8299561c-1.7099609,0-3.4299927-0.1400146-5.1400146-0.4100342 l-230.789978-37.5400391l35.2600098,87l-143.6099854,190.7000732l-209.2000122,28.7800293l-114.6400146-128.710083 l-65.6099854-161.8999023l143.5899658-190.7000732l106.7200317-14.6899414l-89.8200073-236.9300537 c-4.0700073-10.7199707-2.0900269-22.8999634,5.1699829-31.789978l256.1100464-313.5900269 c7.2599487-8.8800049,18.7999878-13.2598877,30.1199951-11.4200439l399.6400146,65.0100098 c11.3199463,1.8500977,20.8798828,9.6501465,24.9499512,20.3800659l143.5099487,378.5999756 C1163.3289795,700.1199951,1161.348999,712.2999878,1154.098999,721.1900024z M1114.9888916,698.5100098L976.5490112,333.3299561 l-385.4700317-62.7099609l-247.039978,302.4799805l90.8999634,239.7999878l57.1300049-7.8599854L606.7189941,933.75 l10.7299805,26.4899902l250.4899902,40.75L1114.9888916,698.5100098z M775.4397583,385.475769L617.7372437,492.0874023 l-43.1577148,56.7357178l24.3633423,193.7844849l182.0743408,87.1710205l157.7025146-106.6116333l43.1577759-56.7357178 l-24.3717651-193.7825317L775.4397583,385.475769z M1266.9019775,970.0546875l-169.0100098-24.3834839l-133.7322998,86.5570679 l20.4123535,159.9484863l35.27771,110.9405518l169.0073242,24.3778076l133.7324219-86.5570068l-20.4123535-159.9486084 L1266.9019775,970.0546875z" fill="#F3BD68" />
  </g>
  <g id="change2_1">
    <path d="M587.6789551,1000.6199951l84.6500244,95.039917l-143.6099854,190.7000732 l-114.6400146-128.710083l124.289978-165.0499268l19.3200073-25.6500244L587.6789551,1000.6199951z M1168.4447021,1167.5465088 l-169.0073242-24.3778076l20.4123535,159.9486084l169.0073242,24.3778076L1168.4447021,1167.5465088z M0,213.3686523 l86.1952515,186.6311035l122.3693848-100.1877441l-86.1952515-186.6311035L0,213.3686523z M598.9428711,742.607605 l182.0743408,87.1710205l43.1577148-56.7357178l-182.0743408-87.1710205L598.9428711,742.607605z M1030.3937988,135.8208008 l-24.8151855-65.4616699c-1.1155396-2.9389648-3.7351074-5.0783691-6.8380127-5.5837402l-69.0975952-11.2397461 c-0.4654541-0.0756836-0.9398193-0.1140137-1.4116821-0.1140137c-2.666687,0-5.161438,1.1821289-6.8449707,3.2436523 l-44.2830811,54.2207031c-1.9885254,2.4353027-2.5316772,5.774292-1.4173584,8.7144775L900.5010986,185.0625 c1.1156006,2.939209,3.7357788,5.0787354,6.8380127,5.583374l69.0995483,11.2404785 C976.9041138,201.961792,977.378479,202,977.848999,202c2.6660767,0,5.1608276-1.182373,6.84375-3.2438965l44.2849121-54.2216797 C1030.9655762,142.0986328,1031.5081787,138.7595215,1030.3937988,135.8208008z" fill="#4D87DD" />
  </g>
  <g id="change3_1">
    <path d="M208.5646362,299.8120117l173.9921265,73.4482422L260.1873779,473.447998L86.1952515,399.9997559 L208.5646362,299.8120117z M204.8789673,1186.4299316l114.6400146,128.710083l209.2000122-28.7800293l-114.6400146-128.710083 L204.8789673,1186.4299316z M642.1005859,685.8718872l-24.3633423-193.7844849l-43.1577148,56.7357178l24.3633423,193.7844849 L642.1005859,685.8718872z M210.1600342,0L87.7906494,100.1877441L0,213.3686523l122.3693848-100.1877441L210.1600342,0z M824.1749268,773.0429077l-43.1577148,56.7357178l157.7025146-106.6116333l43.1577759-56.7357178L824.1749268,773.0429077z M617.4489746,960.2399902L606.7189941,933.75L492.0689697,805.039978L550.55896,949.3599854l7.1300049,17.5899658 l29.9899902,33.6700439l84.6500244,95.039917l-35.2600098-87L617.4489746,960.2399902z M964.159668,1032.2282715 l20.4123535,159.9484863l35.27771,110.9405518l-20.4123535-159.9486084L964.159668,1032.2282715z M1168.4447021,1167.5465088 l20.4123535,159.9486084l133.7324219-86.5570068l-20.4123535-159.9486084L1168.4447021,1167.5465088z M240.2835693,727.7861938 l-19.9912109-100.6838989c-0.1345825-0.6782837-0.3253784-1.3495483-0.5673218-1.9976807 c-1.3674316-3.663269-4.2705688-6.4841919-7.9656982-7.7398682l-97.19104-33.0292358 c-4.3649902-1.4830322-9.2304688-0.5169067-12.697998,2.5214233l-77.2017212,67.6563721 c-3.4656372,3.0396729-5.0610352,7.736145-4.1635132,12.2564697l19.991333,100.6868896 c0.1350098,0.6781006,0.3257446,1.3493042,0.5670776,1.9957275c1.3670654,3.6624146,4.2706299,6.4831543,7.9654541,7.7379761 l97.1933594,33.0313721c4.3655396,1.4818115,9.2306519,0.5148315,12.6960449-2.5227051l77.2012939-67.656189 C239.5847778,737.0033569,241.180542,732.3077393,240.2835693,727.7861938z M1329.5189209,286.5500488l-30.2299805,103.0199585 c-1.3601074,4.6300049-5.1101074,8.2099609-9.8000488,9.3499756L1185.1489258,424.25 c-1.0400391,0.25-2.1099854,0.3800049-3.1800537,0.3800049c-2.9399414,0-5.8499756-0.9800415-8.1899414-2.75 c-0.5800781-0.4400024-1.1300049-0.9299927-1.6300049-1.4500122l-74.0999756-77.6900024 c-3.3200684-3.4899902-4.5500488-8.5300293-3.1900635-13.1600342l30.2301025-103.0198975 c1.3598633-4.630127,5.1098633-8.210083,9.7999268-9.3500977l104.3399658-25.3299561 c1.0400391-0.25,2.1101074-0.3800049,3.1800537-0.3800049c3.6900635,0,7.2698975,1.5300293,9.8099365,4.1999512 l74.1000977,77.6900635C1329.6489258,276.8800049,1330.8789062,281.9199219,1329.5189209,286.5500488z M1307.2188721,284.9899902 l-67.5-70.7600098l-95.0300293,23.0700684l-27.5299072,93.8299561l67.4899902,70.7699585l95.0299072-23.0700073 L1307.2188721,284.9899902z" fill="#C9E85D" />
  </g>
</svg>