<?xml version="1.0" standalone="no"?>
<!DOCTYPE svg PUBLIC "-//W3C//DTD SVG 20010904//EN" "http://www.w3.org/TR/2001/REC-SVG-20010904/DTD/svg10.dtd">
<svg version="1.0" xmlns="http://www.w3.org/2000/svg" width="36.000000pt" height="36.000000pt" viewBox="0 0 36.000000 36.000000" preserveAspectRatio="xMidYMid meet">
  <metadata> Created by potrace 1.16, written by Peter Selinger 2001-2019 </metadata>
  <g transform="translate(0.000000,36.000000) scale(0.007965,-0.007982)" fill="#000000" stroke="none">
    <path d="M20 2245 l0 -2245 2250 0 2250 0 0 2245 0 2245 -2250 0 -2250 0 0
    -2245z m2200 1312 c0 -28 4 -67 9 -84 24 -85 169 -220 401 -374 110 -73 146
    -101 217 -170 206 -199 263 -371 166 -499 -11 -14 -31 -45 -46 -70 -39 -67
    -295 -320 -323 -320 -10 0 -14 12 -14 39 0 47 -32 150 -62 200 -29 49 -123
    149 -174 186 -57 41 -209 169 -264 222 -25 24 -61 53 -81 66 -41 25 -199 189
    -219 227 -8 14 -13 57 -12 105 0 99 30 173 100 247 171 183 270 276 295 278 4
    0 7 -24 7 -53z m-208 -1124 l-3 -68 49 -50 c67 -68 151 -139 187 -158 122 -63
    245 -230 245 -334 0 -59 -117 -210 -221 -286 l-36 -26 -7 55 c-3 31 -14 70
    -23 87 -26 52 -105 138 -158 174 -130 88 -250 194 -276 245 -24 47 -23 77 5
    161 14 45 39 90 71 129 46 57 138 136 160 137 6 1 9 -26 7 -66z m1047 -1011
    l385 -7 33 -55 c18 -30 32 -61 31 -68 -2 -10 -48 -13 -195 -15 -226 -2 -209 6
    -268 -130 -27 -62 -44 -89 -59 -92 -12 -3 -382 -4 -824 -3 l-803 3 -35 85
    c-19 47 -39 92 -43 100 -7 12 -44 15 -221 18 -167 2 -211 5 -207 15 3 7 18 43
    33 80 l29 66 135 3 c290 6 1645 6 2009 0z" />
  </g>
</svg>